[Header]
FileType HTR
DataType HTRS
FileVersion 1
NumSegments 64
NumFrames 3
DataFrameRate 24
EulerRotationOrder ZYX
CalibrationUnits mm
RotationUnits Degrees
GlobalAxisofGravity Y
BoneLengthAxis Y
ScaleFactor 1.0
[SegmentNames&Hierarchy]
Hips	GLOBAL
Spine	Hips
Spine1	Spine
Spine2	Spine1
Neck	Spine2
Head	Neck
LeftEye	Head
RightEye	Head
LeftShoulder	Spine2
LeftArm	LeftShoulder
LeftForeArm	LeftArm
LeftHand	LeftForeArm
LeftHandThumb1	LeftHand
LeftHandThumb2	LeftHandThumb1
LeftHandThumb3	LeftHandThumb2
LeftHandThumb4	LeftHandThumb3
LeftHandIndex1	LeftHand
LeftHandIndex2	LeftHandIndex1
LeftHandIndex3	LeftHandIndex2
LeftHandIndex4	LeftHandIndex3
LeftHandMiddle1	LeftHand
LeftHandMiddle2	LeftHandMiddle1
LeftHandMiddle3	LeftHandMiddle2
LeftHandMiddle4	LeftHandMiddle3
LeftHandRing1	LeftHand
LeftHandRing2	LeftHandRing1
LeftHandRing3	LeftHandRing2
LeftHandRing4	LeftHandRing3
LeftHandPinky1	LeftHand
LeftHandPinky2	LeftHandPinky1
LeftHandPinky3	LeftHandPinky2
LeftHandPinky4	LeftHandPinky3
RightShoulder	Spine2
RightArm	RightShoulder
RightForeArm	RightArm
RightHand	RightForeArm
RightHandPinky1	RightHand
RightHandPinky2	RightHandPinky1
RightHandPinky3	RightHandPinky2
RightHandPinky4	RightHandPinky3
RightHandRing1	RightHand
RightHandRing2	RightHandRing1
RightHandRing3	RightHandRing2
RightHandRing4	RightHandRing3
RightHandMiddle1	RightHand
RightHandMiddle2	RightHandMiddle1
RightHandMiddle3	RightHandMiddle2
RightHandMiddle4	RightHandMiddle3
RightHandIndex1	RightHand
RightHandIndex2	RightHandIndex1
RightHandIndex3	RightHandIndex2
RightHandIndex4	RightHandIndex3
RightHandThumb1	RightHand
RightHandThumb2	RightHandThumb1
RightHandThumb3	RightHandThumb2
RightHandThumb4	RightHandThumb3
LeftUpLeg	Hips
LeftLeg	LeftUpLeg
LeftFoot	LeftLeg
LeftToeBase	LeftFoot
RightUpLeg	Hips
RightLeg	RightUpLeg
RightFoot	RightLeg
RightToeBase	RightFoot
[BasePosition]
Hips	0	0	0	0	0	0	1
Spine	0	0	0	0	0	0	1
Spine1	0	0	0	0	0	0	1
Spine2	0	0	0	0	0	0	1
Neck	0	0	0	0	0	0	1
Head	0	0	0	0	0	0	1
LeftEye	0	0	0	0	0	0	1
RightEye	0	0	0	0	0	0	1
LeftShoulder	0	0	0	0	0	0	1
LeftArm	0	0	0	0	0	0	1
LeftForeArm	0	0	0	0	0	0	1
LeftHand	0	0	0	0	0	0	1
LeftHandThumb1	0	0	0	0	0	0	1
LeftHandThumb2	0	0	0	0	0	0	1
LeftHandThumb3	0	0	0	0	0	0	1
LeftHandThumb4	0	0	0	0	0	0	1
LeftHandIndex1	0	0	0	0	0	0	1
LeftHandIndex2	0	0	0	0	0	0	1
LeftHandIndex3	0	0	0	0	0	0	1
LeftHandIndex4	0	0	0	0	0	0	1
LeftHandMiddle1	0	0	0	0	0	0	1
LeftHandMiddle2	0	0	0	0	0	0	1
LeftHandMiddle3	0	0	0	0	0	0	1
LeftHandMiddle4	0	0	0	0	0	0	1
LeftHandRing1	0	0	0	0	0	0	1
LeftHandRing2	0	0	0	0	0	0	1
LeftHandRing3	0	0	0	0	0	0	1
LeftHandRing4	0	0	0	0	0	0	1
LeftHandPinky1	0	0	0	0	0	0	1
LeftHandPinky2	0	0	0	0	0	0	1
LeftHandPinky3	0	0	0	0	0	0	1
LeftHandPinky4	0	0	0	0	0	0	1
RightShoulder	0	0	0	0	0	0	1
RightArm	0	0	0	0	0	0	1
RightForeArm	0	0	0	0	0	0	1
RightHand	0	0	0	0	0	0	1
RightHandPinky1	0	0	0	0	0	0	1
RightHandPinky2	0	0	0	0	0	0	1
RightHandPinky3	0	0	0	0	0	0	1
RightHandPinky4	0	0	0	0	0	0	1
RightHandRing1	0	0	0	0	0	0	1
RightHandRing2	0	0	0	0	0	0	1
RightHandRing3	0	0	0	0	0	0	1
RightHandRing4	0	0	0	0	0	0	1
RightHandMiddle1	0	0	0	0	0	0	1
RightHandMiddle2	0	0	0	0	0	0	1
RightHandMiddle3	0	0	0	0	0	0	1
RightHandMiddle4	0	0	0	0	0	0	1
RightHandIndex1	0	0	0	0	0	0	1
RightHandIndex2	0	0	0	0	0	0	1
RightHandIndex3	0	0	0	0	0	0	1
RightHandIndex4	0	0	0	0	0	0	1
RightHandThumb1	0	0	0	0	0	0	1
RightHandThumb2	0	0	0	0	0	0	1
RightHandThumb3	0	0	0	0	0	0	1
RightHandThumb4	0	0	0	0	0	0	1
LeftUpLeg	0	0	0	0	0	0	1
LeftLeg	0	0	0	0	0	0	1
LeftFoot	0	0	0	0	0	0	1
LeftToeBase	0	0	0	0	0	0	1
RightUpLeg	0	0	0	0	0	0	1
RightLeg	0	0	0	0	0	0	1
RightFoot	0	0	0	0	0	0	1
RightToeBase	0	0	0	0	0	0	1
[Hips]
4	8.874788284	997.338562	497.987793	17.01207924	-5.72497797	-0.7763887644	1.0
5	7.674286366	1001.118042	649.1893921	15.78853321	-2.319933891	-0.5977624655	1.0
6	6.463485718	996.6484985	798.7813721	13.67835712	1.410917997	-0.8549304605	1.0
[Spine]
4	0	101.8159943	1.315000057	-0.6490107775	7.645463467	0.4058316052	1.0
5	0	101.8159943	1.315000057	0.1502439976	7.314420223	0.7579823732	1.0
6	0	101.8159943	1.315000057	1.275867581	6.460283756	1.429047704	1.0
[Spine1]
4	0	100.8349991	-10.00800037	2.56717658	7.932617664	-6.010713577	1.0
5	0	100.8349991	-10.00800037	3.141450882	8.010175705	-5.504549026	1.0
6	0	100.8349991	-10.00800037	4.335985184	7.362254143	-4.514086246	1.0
[Spine2]
4	0	91	-13.73399925	-0.06223689392	7.720726013	-1.385862947	1.0
5	0	91	-13.73399925	0.4933060706	7.803542137	-0.8492032886	1.0
6	0	91	-13.73399925	1.620765448	7.132195473	0.1644739211	1.0
[Neck]
4	0	166.7169952	-25.16200066	-0.747505188	-2.766735554	-0.9638635516	1.0
5	0	166.7169952	-25.16200066	-3.780183792	-2.977371216	-1.411768436	1.0
6	0	166.7169952	-25.16200066	-6.911375046	-2.906970978	-1.804545164	1.0
[Head]
4	0	96.17900085	16.84999847	-25.09669495	-12.39424229	6.429109097	1.0
5	0	96.17900085	16.84999847	-23.25029182	-14.81079102	5.412844658	1.0
6	0	96.17900085	16.84999847	-21.76525879	-15.64252567	3.899200439	1.0
[LeftEye]
4	30.6760006	64.09500122	92.83599854	0	0	0	1.0
5	30.6760006	64.09500122	92.83599854	0	0	0	1.0
6	30.6760006	64.09500122	92.83599854	0	0	0	1.0
[RightEye]
4	-30.6760006	64.09500122	92.83499908	0	0	0	1.0
5	-30.6760006	64.09500122	92.83499908	0	0	0	1.0
6	-30.6760006	64.09500122	92.83499908	0	0	0	1.0
[LeftShoulder]
4	45.70400238	109.4599991	-26.28000069	-0.9782405496	-6.183461189	-8.798191071	1.0
5	45.70400238	109.4599991	-26.28000069	-0.8044325113	-6.483654976	-9.415309906	1.0
6	45.70400238	109.4599991	-26.28000069	-0.5560632944	-6.702228546	-10.56607437	1.0
[LeftArm]
4	105.923996	-5.24600029	-22.32099915	22.21579933	42.23693466	-33.09226608	1.0
5	105.923996	-5.24600029	-22.32099915	18.37599564	39.16353226	-34.53303528	1.0
6	105.923996	-5.24600029	-22.32099915	12.94189262	34.17245102	-38.42510986	1.0
[LeftForeArm]
4	278.414978	-0.0009999999311	0	-1.525878906e-05	-97.14513397	-0.0002136230469	1.0
5	278.414978	-0.0009999999311	0	-3.116507052e-12	-100.8705826	-0.0002136230469	1.0
6	278.414978	-0.0009999999311	0	3.051756721e-05	-101.9361496	-0.0002593994141	1.0
[LeftHand]
4	283.2879944	0	0	-21.27923012	7.552363396	-2.425069332	1.0
5	283.2879944	0	0	-23.08272934	12.204422	3.124781609	1.0
6	283.2879944	0	0	-22.67394829	15.42378044	8.616643906	1.0
[LeftHandThumb1]
4	24.6609993	-15.75	26.8239994	12.36617565	-3.402403831	9.637259483	1.0
5	24.6609993	-15.75	26.8239994	12.36617947	-3.402401447	9.637265205	1.0
6	24.6609993	-15.75	26.8239994	12.36618423	-3.402398825	9.637271881	1.0
[LeftHandThumb2]
4	32.29800034	-18.64699936	18.64699936	0.2127237767	5.325321198	19.64099884	1.0
5	32.29800034	-18.64699936	18.64699936	-2.178208351	4.526410103	20.74917603	1.0
6	32.29800034	-18.64699936	18.64699936	-4.085509777	4.943828106	20.24617004	1.0
[LeftHandThumb3]
4	26.52600098	-15.31499958	15.31499958	6.45424509	-15.16994476	-4.115498066	1.0
5	26.52600098	-15.31499958	15.31499958	7.191814423	-13.98379898	-5.252941132	1.0
6	26.52600098	-15.31499958	15.31499958	7.564182758	-12.13847923	-5.903876781	1.0
[LeftHandThumb4]
4	19.54599953	-11.28499985	11.28499985	0	0	0	1.0
5	19.54599953	-11.28499985	11.28499985	0	0	0	1.0
6	19.54599953	-11.28499985	11.28499985	0	0	0	1.0
[LeftHandIndex1]
4	91.09299469	-5.170999527	22.60099792	-5.444129467	6.716791153	-49.0236702	1.0
5	91.09299469	-5.170999527	22.60099792	-4.489701748	6.478690147	-44.80046463	1.0
6	91.09299469	-5.170999527	22.60099792	-4.052417755	6.462180614	-43.26432037	1.0
[LeftHandIndex2]
4	36.76399994	0	0	-2.600940228	4.896110535	-49.45145798	1.0
5	36.76399994	0	0	-2.570303202	4.878311634	-49.10195541	1.0
6	36.76399994	0	0	-2.63045311	4.914904594	-49.79658127	1.0
[LeftHandIndex3]
4	28.83100128	0	0	-1.14122498	3.202458143	-36.37613297	1.0
5	28.83100128	0	0	-1.119398117	3.175447464	-36.02988434	1.0
6	28.83100128	0	0	-1.16198051	3.230423689	-36.72333527	1.0
[LeftHandIndex4]
4	23.92700005	0	0	0	0	0	1.0
5	23.92700005	0	0	0	0	0	1.0
6	23.92700005	0	0	0	0	0	1.0
[LeftHandMiddle1]
4	95.33399963	0	0	-7.278444767	8.592075348	-58.43515015	1.0
5	95.33399963	0	0	-6.831511497	8.759506226	-55.20822525	1.0
6	95.33399963	0	0	-6.674807072	9.150173187	-54.06718063	1.0
[LeftHandMiddle2]
4	36.98199844	0	0	-2.477560997	4.718273163	-47.10680389	1.0
5	36.98199844	0	0	-2.633377552	4.817762375	-48.93497467	1.0
6	36.98199844	0	0	-2.882758617	4.963843822	-51.79915237	1.0
[LeftHandMiddle3]
4	29.50900078	0	0	-1.397641301	3.909753561	-39.97598267	1.0
5	29.50900078	0	0	-1.356660604	3.868423939	-39.38914871	1.0
6	29.50900078	0	0	-1.423516273	3.939156055	-40.37073898	1.0
[LeftHandMiddle4]
4	28.3390007	0	0	0	0	0	1.0
5	28.3390007	0	0	0	0	0	1.0
6	28.3390007	0	0	0	0	0	1.0
[LeftHandRing1]
4	91.04499817	-0.4390000105	-18.65100098	-7.081466675	6.53696394	-58.17076874	1.0
5	91.04499817	-0.4390000105	-18.65100098	-6.68742466	6.553652287	-55.35112762	1.0
6	91.04499817	-0.4390000105	-18.65100098	-6.536955357	6.654757977	-54.25156403	1.0
[LeftHandRing2]
4	31.54000092	0	0	-1.725623846	4.640661716	-48.18161774	1.0
5	31.54000092	0	0	-1.687875271	4.608062267	-47.6767807	1.0
6	31.54000092	0	0	-1.751528621	4.665452003	-48.54443741	1.0
[LeftHandRing3]
4	29.37700081	0	0	-1.292006373	4.2479496	-46.0815773	1.0
5	29.37700081	0	0	-1.257299304	4.211531162	-45.57446289	1.0
6	29.37700081	0	0	-1.315204978	4.274918556	-46.44000626	1.0
[LeftHandRing4]
4	26.47500038	0	0	0	0	0	1.0
5	26.47500038	0	0	0	0	0	1.0
6	26.47500038	0	0	0	0	0	1.0
[LeftHandPinky1]
4	80.77799988	-4.887000084	-38.06099701	-8.932788849	7.542916775	-70.02122498	1.0
5	80.77799988	-4.887000084	-38.06099701	-8.650012016	7.838810444	-67.2749176	1.0
6	80.77799988	-4.887000084	-38.06099701	-9.004781723	8.241046906	-67.15479279	1.0
[LeftHandPinky2]
4	36	0	0	-2.14928174	3.987318039	-48.32268143	1.0
5	36	0	0	-2.111310959	3.959037781	-47.84778595	1.0
6	36	0	0	-2.157351732	3.99372077	-48.42604446	1.0
[LeftHandPinky3]
4	21.14200211	0	0	-1.73125577	4.486597538	-40.98524094	1.0
5	21.14200211	0	0	-1.696112752	4.454708099	-40.51025391	1.0
6	21.14200211	0	0	-1.738686085	4.493771553	-41.08863449	1.0
[LeftHandPinky4]
4	19.75699997	0	0	0	0	0	1.0
5	19.75699997	0	0	0	0	0	1.0
6	19.75699997	0	0	0	0	0	1.0
[RightShoulder]
4	-45.70000076	109.4620056	-26.28000069	-4.039666653	17.09578514	2.187633991	1.0
5	-45.70000076	109.4620056	-26.28000069	-3.999506474	15.71513081	2.661757231	1.0
6	-45.70000076	109.4620056	-26.28000069	-3.916874886	14.86578751	3.62695837	1.0
[RightArm]
4	-105.9280014	-5.248000145	-22.32099915	-6.121533871	35.98691559	40.74101257	1.0
5	-105.9280014	-5.248000145	-22.32099915	-8.336257935	33.70254517	39.26854324	1.0
6	-105.9280014	-5.248000145	-22.32099915	-8.489951134	30.5610733	38.44476318	1.0
[RightForeArm]
4	-278.414978	0	0	-2.676941222e-05	74.76270294	8.56821498e-06	1.0
5	-278.414978	0	0	-6.889024371e-05	80.21238708	-6.635460159e-05	1.0
6	-278.414978	0	0	1.032503224e-05	79.74789429	8.328169497e-05	1.0
[RightHand]
4	-283.2879944	0	0.0009999999311	-7.354065895	-0.9688457847	-6.766228199	1.0
5	-283.2879944	0	0.0009999999311	-5.184336662	8.014968872	-7.760887146	1.0
6	-283.2879944	0	0.0009999999311	-4.713846684	20.20243835	-7.785802841	1.0
[RightHandPinky1]
4	-80.76699829	-4.885000229	-38.06000137	-10.45333481	2.358630896	84.72583008	1.0
5	-80.76699829	-4.885000229	-38.06000137	-10.27054787	-2.161676407	82.04252625	1.0
6	-80.76699829	-4.885000229	-38.06000137	-10.46573639	-7.412731647	79.3364563	1.0
[RightHandPinky2]
4	-36	0	0.0009999999311	-5.403510571	-5.219602585	83.83438873	1.0
5	-36	0	0.0009999999311	-5.251068115	-5.207798004	82.29896545	1.0
6	-36	0	0.0009999999311	-5.106783867	-5.19606781	80.84527588	1.0
[RightHandPinky3]
4	-21.14200211	0	0	-2.540646315	-2.007073402	49.53862	1.0
5	-21.14200211	0	0	-2.460338593	-1.948058367	48.54277802	1.0
6	-21.14200211	0	0	-2.391346216	-1.896708727	47.68342972	1.0
[RightHandPinky4]
4	-19.75699997	0	0	0	0	0	1.0
5	-19.75699997	0	0	0	0	0	1.0
6	-19.75699997	0	0	0	0	0	1.0
[RightHandRing1]
4	-91.03599548	-0.4390000105	-18.65100098	-10.08181953	-4.108721256	81.78800201	1.0
5	-91.03599548	-0.4390000105	-18.65100098	-9.992413521	-5.357758522	80.53749084	1.0
6	-91.03599548	-0.4390000105	-18.65100098	-9.860117912	-6.751316071	78.90740967	1.0
[RightHandRing2]
4	-31.54000092	0	0	-3.672091961	-5.865477562	71.63817596	1.0
5	-31.54000092	0	0	-3.570966959	-5.825367928	70.53614044	1.0
6	-31.54000092	0	0	-3.465214014	-5.783617496	69.38442993	1.0
[RightHandRing3]
4	-29.37700081	0	0	-2.034122944	-3.063272715	55.49105072	1.0
5	-29.37700081	0	0	-1.957321525	-2.996026039	54.46276474	1.0
6	-29.37700081	0	0	-1.877086878	-2.925995111	53.38994598	1.0
[RightHandRing4]
4	-26.47500038	0	0	0	0	0	1.0
5	-26.47500038	0	0	0	0	0	1.0
6	-26.47500038	0	0	0	0	0	1.0
[RightHandMiddle1]
4	-95.32500458	0	0	-9.242006302	0.2293301821	73.66325378	1.0
5	-95.32500458	0	0	-8.651468277	-2.550030231	68.96474457	1.0
6	-95.32500458	0	0	-7.874361992	-5.852210045	62.92388153	1.0
[RightHandMiddle2]
4	-36.98199844	0	0	-4.27989006	-5.511574745	66.71030426	1.0
5	-36.98199844	0	0	-4.147886753	-5.475026131	65.3533783	1.0
6	-36.98199844	0	0	-4.001263142	-5.434746265	63.84692001	1.0
[RightHandMiddle3]
4	-29.50900078	0	0	-2.810589552	-4.914829731	58.42935562	1.0
5	-29.50900078	0	0	-2.718329191	-4.858134747	57.3366394	1.0
6	-29.50900078	0	0	-2.615909815	-4.795437813	56.12483978	1.0
[RightHandMiddle4]
4	-28.3390007	0	0.0009999999311	0	0	0	1.0
5	-28.3390007	0	0.0009999999311	0	0	0	1.0
6	-28.3390007	0	0.0009999999311	0	0	0	1.0
[RightHandIndex1]
4	-91.08300018	-5.167999744	22.60099792	0.8809432983	0.08469200879	61.26890945	1.0
5	-91.08300018	-5.167999744	22.60099792	-1.234864712	-2.522509098	60.32609558	1.0
6	-91.08300018	-5.167999744	22.60099792	-3.857116222	-5.793709278	58.89798355	1.0
[RightHandIndex2]
4	-36.76399994	0	0	-3.298444033	-5.278036594	57.30914688	1.0
5	-36.76399994	0	0	-3.306147575	-5.281590462	57.39283371	1.0
6	-36.76399994	0	0	-3.320889235	-5.288361073	57.55289459	1.0
[RightHandIndex3]
4	-28.83100128	0	0	-1.965490937	-3.047476768	47.86725616	1.0
5	-28.83100128	0	0	-1.971690178	-3.053060532	47.95055389	1.0
6	-28.83100128	0	0	-1.983566284	-3.063730955	48.1098938	1.0
[RightHandIndex4]
4	-23.92700005	0	0	0	0	0	1.0
5	-23.92700005	0	0	0	0	0	1.0
6	-23.92700005	0	0	0	0	0	1.0
[RightHandThumb1]
4	-24.64799881	-15.72700024	26.82600021	0.9189218879	1.682101607	-7.462079525	1.0
5	-24.64799881	-15.72700024	26.82600021	0.354945302	2.695725203	-6.905507088	1.0
6	-24.64799881	-15.72700024	26.82600021	0.1117115319	3.107139587	-6.500430107	1.0
[RightHandThumb2]
4	-32.29800034	-18.64699936	18.64699936	4.450273991	-22.70461082	-4.580922127	1.0
5	-32.29800034	-18.64699936	18.64699936	4.450273991	-22.70461082	-4.580922127	1.0
6	-32.29800034	-18.64699936	18.64699936	4.450273991	-22.70461082	-4.580922127	1.0
[RightHandThumb3]
4	-26.52600098	-15.31399918	15.31399918	-12.58338261	9.9640131	3.83227396	1.0
5	-26.52600098	-15.31399918	15.31399918	-12.58338261	9.9640131	3.83227396	1.0
6	-26.52600098	-15.31399918	15.31399918	-12.58338261	9.9640131	3.83227396	1.0
[RightHandThumb4]
4	-19.54599953	-11.28499985	11.28499985	0	0	0	1.0
5	-19.54599953	-11.28499985	11.28499985	0	0	0	1.0
6	-19.54599953	-11.28499985	11.28499985	0	0	0	1.0
[LeftUpLeg]
4	82.07800293	-67.51699829	-15.99599934	-72.95272827	2.148038864	0.4281139374	1.0
5	82.07800293	-67.51699829	-15.99599934	-59.62905884	0.9336795807	-1.65461874	1.0
6	82.07800293	-67.51699829	-15.99599934	-45.95553589	0.2824273109	-3.59945631	1.0
[LeftLeg]
4	0	-443.7049866	2.845999956	70.23062897	0.5223491192	-3.172837973	1.0
5	0	-443.7049866	2.845999956	37.32923889	-1.767943382	-3.057880878	1.0
6	0	-443.7049866	2.845999956	11.02210617	-3.708753824	-2.865237713	1.0
[LeftFoot]
4	0	-444.2789917	-29.8219986	-2.089941978	2.200511217	-1.287260175	1.0
5	0	-444.2789917	-29.8219986	0.5013540983	1.315301895	-4.767185688	1.0
6	0	-444.2789917	-29.8219986	4.33921957	0.05710825324	-5.892937183	1.0
[LeftToeBase]
4	0	-87.28699493	107.1060028	0.907976985	7.761640859e-07	-5.01600482e-07	1.0
5	0	-87.28699493	107.1060028	-3.306766748	3.729893479e-07	1.913406095e-06	1.0
6	0	-87.28699493	107.1060028	-7.061306953	-1.070974989e-07	3.722106158e-06	1.0
[RightUpLeg]
4	-82.07800293	-67.51699829	-15.99599934	1.585962892	-15.46110439	-0.6378574371	1.0
5	-82.07800293	-67.51699829	-15.99599934	-0.646894455	-12.73661327	1.601798058	1.0
6	-82.07800293	-67.51699829	-15.99599934	-3.455958128	-10.53816128	4.272186756	1.0
[RightLeg]
4	0	-443.7049866	2.861999989	23.57614899	3.599770069	-1.627226114	1.0
5	0	-443.7049866	2.861999989	42.02484894	3.909969568	-4.180080414	1.0
6	0	-443.7049866	2.861999989	63.31611252	5.193966866	-6.166043282	1.0
[RightFoot]
4	0	-444.2770081	-29.83799934	5.388220787	7.296616077	14.52528	1.0
5	0	-444.2770081	-29.83799934	6.211642265	-0.1972775459	13.04460526	1.0
6	0	-444.2770081	-29.83799934	5.129281998	-8.250821114	9.922472	1.0
[RightToeBase]
4	0	-87.28699493	107.1060028	-2.037733555	-0.02297417633	-2.653114796	1.0
5	0	-87.28699493	107.1060028	0.2770259976	0.1451109797	-0.9762977958	1.0
6	0	-87.28699493	107.1060028	-0.07971017808	1.192204536e-06	-3.47291757e-06	1.0
[EndOfFile]
